Coordinates
version=1
nRows=26
nColumns=22
inDegrees=yes

Units are S.I. units (second, meters, Newtons, ...)
If the header above contains a line with 'inDegrees', this indicates whether rotational values are in degrees (yes) or radians (no).

endheader
time	pelvis_tilt	pelvis_list	pelvis_rotation	pelvis_tx	pelvis_ty	pelvis_tz	hip_flexion_r	hip_adduction_r	hip_rotation_r	knee_angle_r	ankle_angle_r	subtalar_angle_r	hip_flexion_l	hip_adduction_l	hip_rotation_l	knee_angle_l	ankle_angle_l	subtalar_angle_l	lumbar_extension	lumbar_bending	lumbar_rotation
      6.16000000	     -5.06862968	      1.45381167	    235.77521683	     -0.67432172	      0.92873043	     -0.02161212	     -8.25352814	      2.15302250	    -11.36441511	    -28.74354277	     15.00541119	     10.72312730	     28.69989206	     -4.35896705	    -13.15872416	    -23.55194174	      3.44328887	    -10.96044307	     -5.52428985	      7.55519307	     -1.14751958
      6.17000000	     -4.84081111	      1.51795677	    236.30790879	     -0.67749239	      0.92890878	     -0.01123890	     -7.70928766	      1.76185521	    -10.94834068	    -30.39270980	     13.56435205	     11.80086898	     28.67412888	     -3.70747723	    -12.28350795	    -23.96209815	      2.31070787	    -11.64011145	     -5.07876242	      7.33991496	     -1.17605779
      6.18000000	     -4.62636806	      1.60108169	    236.88546948	     -0.68047232	      0.92920106	     -0.00082384	     -7.01125300	      1.38936755	    -10.47437896	    -32.22847299	     11.90801017	     12.95789999	     28.66052824	     -3.02532955	    -11.24939369	    -24.37801687	      1.24721513	    -12.22138168	     -4.63675412	      7.15364086	     -1.24790424
      6.19000000	     -4.43923178	      1.69713193	    237.50693029	     -0.68328796	      0.92958722	      0.00958378	     -6.17501488	      1.05093258	     -9.93897429	    -34.23778492	     10.05053474	     14.11985969	     28.64629673	     -2.34334936	    -10.12660695	    -24.82092382	      0.31390991	    -12.72087447	     -4.21400275	      7.00089079	     -1.36218836
      6.20000000	     -4.29443818	      1.78398322	    238.16018022	     -0.68596854	      0.93007114	      0.01992474	     -5.23243314	      0.75430913	     -9.32790153	    -36.40628467	      8.04622614	     15.27197949	     28.59802359	     -1.68997450	     -9.00389699	    -25.29403165	     -0.47492010	    -13.17969873	     -3.84713430	      6.87852685	     -1.50337126
      6.21000000	     -4.18322168	      1.85151047	    238.84024039	     -0.68853805	      0.93061855	      0.03015410	     -4.19328041	      0.49663610	     -8.64139056	    -38.72256279	      5.97858967	     16.29459655	     28.50296252	     -1.06649090	     -7.92798003	    -25.78355699	     -1.09353612	    -13.61354940	     -3.54188810	      6.76897495	     -1.68053130
      6.22000000	     -4.09653168	      1.91533410	    239.54469886	     -0.69099135	      0.93112573	      0.04021035	     -3.03059648	      0.27373591	     -7.93544020	    -41.19971114	      3.93600585	     17.02937569	     28.39642504	     -0.48106646	     -6.92222927	    -26.31044629	     -1.47855753	    -14.04346838	     -3.28238429	      6.67032067	     -1.85477855
      6.23000000	     -4.01623130	      1.93680918	    240.25136468	     -0.69337045	      0.93164221	      0.05006602	     -1.79342364	      0.07421599	     -7.15196151	    -43.79529439	      2.02895957	     17.56783224	     28.21782303	      0.09490876	     -6.01461216	    -26.80978592	     -1.69944028	    -14.47020415	     -3.09669953	      6.54224672	     -2.05063898
      6.24000000	     -3.95214441	      1.92031280	    240.95327720	     -0.69567135	      0.93212575	      0.05970005	     -0.49057267	     -0.09421505	     -6.34184404	    -46.48822721	      0.31908429	     17.96623969	     27.98065936	      0.64529788	     -5.22101758	    -27.30372225	     -1.69606954	    -14.94440894	     -2.98979720	      6.39990712	     -2.21507658
      6.25000000	     -3.89039362	      1.86233735	    241.66246077	     -0.69787286	      0.93257643	      0.06913344	      0.85669050	     -0.23935885	     -5.53867279	    -49.22708065	     -1.10973198	     18.19491369	     27.67542171	      1.19917948	     -4.50064752	    -27.76227315	     -1.50478696	    -15.44710234	     -2.95133090	      6.23285746	     -2.37426743
      6.26000000	     -3.83636605	      1.76589968	    242.38635599	     -0.69997518	      0.93302585	      0.07839789	      2.22004494	     -0.34914109	     -4.76372151	    -51.94782281	     -2.21583072	     18.24801103	     27.29089821	      1.75573889	     -3.83046682	    -28.16530953	     -1.15736100	    -15.97836084	     -2.97506206	      6.05229860	     -2.54294709
      6.27000000	     -3.76487783	      1.61542444	    243.12958896	     -0.70196295	      0.93353410	      0.08755667	      3.57010872	     -0.45940229	     -4.03404049	    -54.59163881	     -2.94352538	     18.13707281	     26.79351751	      2.35357603	     -3.18461309	    -28.45892382	     -0.72863974	    -16.45010761	     -3.05251421	      5.83148299	     -2.73995402
      6.28000000	     -3.72371725	      1.45332793	    243.91327888	     -0.70381177	      0.93408752	      0.09662179	      4.90279819	     -0.51409273	     -3.39532083	    -57.10033263	     -3.31281044	     17.85021564	     26.23228241	      2.92785966	     -2.54785890	    -28.69798583	     -0.21691581	    -16.99257524	     -3.16096268	      5.64623128	     -2.95458185
      6.29000000	     -3.68034425	      1.24325149	    244.73625380	     -0.70551440	      0.93479774	      0.10567599	      6.17433514	     -0.57632787	     -2.84705880	    -59.42749970	     -3.31879542	     17.43969244	     25.53886071	      3.52916190	     -1.89508069	    -28.80092016	      0.30102987	    -17.48552996	     -3.30852553	      5.45097968	     -3.22032259
      6.30000000	     -3.64127259	      1.00418162	    245.60646330	     -0.70705263	      0.93565805	      0.11474271	      7.38729211	     -0.64783310	     -2.40796938	    -61.54273224	     -3.01187997	     16.88834882	     24.73673152	      4.13457314	     -1.23525375	    -28.78384140	      0.81969856	    -17.95624788	     -3.47158180	      5.26851367	     -3.55864598
      6.31000000	     -3.59619033	      0.75309946	    246.52484871	     -0.70839166	      0.93665381	      0.12380184	      8.56341334	     -0.74485264	     -2.07119466	    -63.43978570	     -2.45393007	     16.29132107	     23.85271111	      4.75080870	     -0.51811183	    -28.65123272	      1.27678285	    -18.36325190	     -3.63197394	      5.09666333	     -3.92680952
      6.32000000	     -3.55644001	      0.50545744	    247.47468755	     -0.70959503	      0.93775067	      0.13285484	      9.70778919	     -0.85191395	     -1.81892298	    -65.10971174	     -1.72082778	     15.56951547	     22.91052423	      5.33294178	      0.18999421	    -28.43147115	      1.73985063	    -18.74584721	     -3.77244397	      4.95366721	     -4.34992247
      6.33000000	     -3.50427386	      0.27319864	    248.45695677	     -0.71061849	      0.93891652	      0.14186795	     10.84425204	     -0.98601613	     -1.62837435	    -66.55807753	     -0.88044627	     14.82244749	     21.93597673	      5.90409137	      0.94322565	    -28.12719515	      2.13010025	    -19.06262541	     -3.87864886	      4.82654164	     -4.79758055
      6.34000000	     -3.44495481	      0.05846509	    249.46243091	     -0.71149650	      0.94012298	      0.15082896	     11.97152503	     -1.13803333	     -1.47726627	    -67.78768133	      0.00860911	     14.02932350	     20.94299105	      6.45002022	      1.72546749	    -27.76369207	      2.47074955	    -19.33145665	     -3.95142036	      4.71794579	     -5.26583825
      6.35000000	     -3.38325115	     -0.13945413	    250.48129186	     -0.71224990	      0.94134836	      0.15972058	     13.08346918	     -1.29715952	     -1.34170412	    -68.79838597	      0.92411647	     13.18903003	     19.93760224	      6.96256344	      2.52975302	    -27.35476383	      2.76744532	    -19.55414910	     -3.99649696	      4.62924455	     -5.74081296
      6.36000000	     -3.32354224	     -0.32657408	    251.50845039	     -0.71290466	      0.94257601	      0.16853773	     14.16852611	     -1.45396407	     -1.20495194	    -69.59239821	      1.84321664	     12.30097232	     18.91916625	      7.43910792	      3.35822222	    -26.91358128	      3.02932356	    -19.74212869	     -4.02413106	      4.55846575	     -6.21427485
      6.37000000	     -3.27085764	     -0.51118542	    252.53872138	     -0.71347558	      0.94379481	      0.17726350	     15.21236752	     -1.59822001	     -1.05305782	    -70.17044628	      2.75415389	     11.38108869	     17.88447625	      7.87792663	      4.21098741	    -26.45176663	      3.26946155	    -19.90635964	     -4.05026108	      4.50380600	     -6.67570134
      6.38000000	     -3.22412506	     -0.69947524	    253.56465861	     -0.71399761	      0.94499273	      0.18589938	     16.20524123	     -1.72672925	     -0.87740813	    -70.53632139	      3.65922525	     10.43931657	     16.82914196	      8.27937657	      5.08193250	    -25.97146947	      3.48700719	    -20.05344602	     -4.08151398	      4.45731190	     -7.11387974
      6.39000000	     -3.18900815	     -0.89999358	    254.59130408	     -0.71446981	      0.94617265	      0.19443691	     17.13319324	     -1.83421590	     -0.68395301	    -70.69192647	      4.52199225	      9.56248558	     15.74129409	      8.64703823	      6.00916918	    -25.47358103	      3.67885814	    -20.18997566	     -4.13404948	      4.42008999	     -7.52659233
      6.40000000	     -3.15017562	     -1.11203766	    255.59253321	     -0.71496851	      0.94729340	      0.20289244	     17.99813234	     -1.92778613	     -0.45855496	    -70.64664862	      5.39591840	      8.61874941	     14.63458550	      8.97370678	      6.88515932	    -24.96663540	      3.91277921	    -20.33478365	     -4.20040230	      4.37164923	     -7.91838969
      6.41000000	     -3.10935171	     -1.32913440	    256.58855667	     -0.71543840	      0.94835149	      0.21121971	     18.81282090	     -2.00582075	     -0.21640902	    -70.41202163	      6.20873371	      7.81568949	     13.51543860	      9.27825033	      7.82545478	    -24.45274471	      4.09907270	    -20.46294108	     -4.28488012	      4.31592853	     -8.27580738
